<svg width="24" height="24" viewBox="0 0 24 24" fill="none" xmlns="http://www.w3.org/2000/svg">
<path fill-rule="evenodd" clip-rule="evenodd" d="M12.75 8.25C11.5074 8.25 10.5 9.25736 10.5 10.5C10.5 11.7426 11.5074 12.75 12.75 12.75C13.9926 12.75 15 11.7426 15 10.5C15 9.25736 13.9926 8.25 12.75 8.25ZM9 10.5C9 8.42893 10.6789 6.75 12.75 6.75C14.8211 6.75 16.5 8.42893 16.5 10.5C16.5 12.5711 14.8211 14.25 12.75 14.25C10.6789 14.25 9 12.5711 9 10.5Z" fill="#4A4A6A"/>
<path fill-rule="evenodd" clip-rule="evenodd" d="M2.25 10.125C2.25 9.71079 2.58579 9.375 3 9.375H5.25C5.66421 9.375 6 9.71079 6 10.125C6 10.5392 5.66421 10.875 5.25 10.875H3C2.58579 10.875 2.25 10.5392 2.25 10.125Z" fill="#4A4A6A"/>
<path fill-rule="evenodd" clip-rule="evenodd" d="M2.25 6.375C2.25 5.96079 2.58579 5.625 3 5.625H5.25C5.66421 5.625 6 5.96079 6 6.375C6 6.78921 5.66421 7.125 5.25 7.125H3C2.58579 7.125 2.25 6.78921 2.25 6.375Z" fill="#4A4A6A"/>
<path fill-rule="evenodd" clip-rule="evenodd" d="M2.25 13.875C2.25 13.4608 2.58579 13.125 3 13.125H5.25C5.66421 13.125 6 13.4608 6 13.875C6 14.2892 5.66421 14.625 5.25 14.625H3C2.58579 14.625 2.25 14.2892 2.25 13.875Z" fill="#4A4A6A"/>
<path fill-rule="evenodd" clip-rule="evenodd" d="M2.25 17.625C2.25 17.2108 2.58579 16.875 3 16.875H5.25C5.66421 16.875 6 17.2108 6 17.625C6 18.0392 5.66421 18.375 5.25 18.375H3C2.58579 18.375 2.25 18.0392 2.25 17.625Z" fill="#4A4A6A"/>
<path fill-rule="evenodd" clip-rule="evenodd" d="M12.75 14.25C11.9932 14.25 11.2468 14.4262 10.5699 14.7647C9.89296 15.1031 9.30414 15.5945 8.85004 16.2C8.60152 16.5314 8.13141 16.5985 7.80004 16.35C7.46867 16.1015 7.40152 15.6314 7.65004 15.3C8.24386 14.5083 9.01385 13.8656 9.89906 13.423C10.7843 12.9804 11.7604 12.75 12.75 12.75C13.7397 12.75 14.7158 12.9804 15.601 13.423C16.4862 13.8656 17.2562 14.5082 17.85 15.3C18.0986 15.6314 18.0314 16.1015 17.7 16.35C17.3687 16.5985 16.8986 16.5314 16.65 16.2C16.196 15.5945 15.6071 15.1031 14.9302 14.7647C14.2533 14.4262 13.5069 14.25 12.75 14.25Z" fill="#4A4A6A"/>
<path fill-rule="evenodd" clip-rule="evenodd" d="M19.5 2.25C20.3284 2.25 21 2.92157 21 3.75V20.25C21 21.0784 20.3284 21.75 19.5 21.75H6C5.17157 21.75 4.5 21.0784 4.5 20.25V3.75C4.5 2.92157 5.17157 2.25 6 2.25L19.5 2.25ZM19.5 20.25V3.75L6 3.75L6 20.25H19.5Z" fill="#4A4A6A"/>
</svg>
